<mxfile host="app.diagrams.net" agent="Mozilla/5.0 (Windows NT 10.0; Win64; x64) AppleWebKit/537.36 (KHTML, like Gecko) Chrome/129.0.0.0 Safari/537.36" version="24.7.17">
  <diagram name="Page-1" id="2BdDj4oBdBKyD8JIuyA4">
    <mxGraphModel dx="614" dy="252" grid="1" gridSize="10" guides="1" tooltips="1" connect="1" arrows="1" fold="1" page="1" pageScale="1" pageWidth="827" pageHeight="1169" math="0" shadow="0">
      <root>
        <mxCell id="0" />
        <mxCell id="1" parent="0" />
        <mxCell id="GLa2MTvpMTpOdKfZp-MN-3" value="" style="edgeStyle=orthogonalEdgeStyle;rounded=0;orthogonalLoop=1;jettySize=auto;html=1;" edge="1" parent="1" source="GLa2MTvpMTpOdKfZp-MN-1" target="GLa2MTvpMTpOdKfZp-MN-2">
          <mxGeometry relative="1" as="geometry" />
        </mxCell>
        <mxCell id="GLa2MTvpMTpOdKfZp-MN-1" value="snd_soc_dai_startup" style="text;whiteSpace=wrap;" vertex="1" parent="1">
          <mxGeometry x="200" y="180" width="140" height="40" as="geometry" />
        </mxCell>
        <mxCell id="GLa2MTvpMTpOdKfZp-MN-2" value="startup" style="text;whiteSpace=wrap;" vertex="1" parent="1">
          <mxGeometry x="420" y="180" width="140" height="40" as="geometry" />
        </mxCell>
        <mxCell id="GLa2MTvpMTpOdKfZp-MN-4" value="soc_pcm_open" style="text;whiteSpace=wrap;" vertex="1" parent="1">
          <mxGeometry x="80" y="140" width="110" height="40" as="geometry" />
        </mxCell>
      </root>
    </mxGraphModel>
  </diagram>
</mxfile>
